<svg viewBox="0 0 120 80" xmlns="http://www.w3.org/2000/svg">
    <defs>
        <linearGradient id="mask1" x1="0" y1="0" x2="0" y2="1">
            <stop offset="0%" stop-color="#9ca3af"/>
            <stop offset="100%" stop-color="#6b7280"/>
        </linearGradient>
    </defs>
    <path d="M20 25 Q20 15 30 15 L90 15 Q100 15 100 25 L100 45 Q100 55 90 55 L30 55 Q20 55 20 45 Z" fill="url(#mask1)" stroke="#4b5563" stroke-width="1.5"/>
    <path d="M25 30 Q25 22 32 22 L88 22 Q95 22 95 30 L95 40 Q95 48 88 48 L32 48 Q25 48 25 40 Z" fill="#4b5563" opacity="0.3"/>
    <line x1="35" y1="30" x2="85" y2="30" stroke="#4b5563" stroke-width="1" opacity="0.5"/>
    <line x1="35" y1="35" x2="85" y2="35" stroke="#4b5563" stroke-width="1" opacity="0.5"/>
    <line x1="35" y1="40" x2="85" y2="40" stroke="#4b5563" stroke-width="1" opacity="0.5"/>
    <path d="M15 25 Q10 20 10 25 L10 45 Q10 50 15 45" fill="none" stroke="#4b5563" stroke-width="2"/>
    <path d="M105 25 Q110 20 110 25 L110 45 Q110 50 105 45" fill="none" stroke="#4b5563" stroke-width="2"/>
</svg>
