<svg viewBox="0 0 120 80" xmlns="http://www.w3.org/2000/svg">
    <defs>
        <linearGradient id="mask2" x1="0" y1="0" x2="0" y2="1">
            <stop offset="0%" stop-color="#ef4444"/>
            <stop offset="100%" stop-color="#dc2626"/>
        </linearGradient>
        <filter id="glow">
            <feGaussianBlur stdDeviation="2" result="coloredBlur"/>
            <feMerge>
                <feMergeNode in="coloredBlur"/>
                <feMergeNode in="SourceGraphic"/>
            </feMerge>
        </filter>
    </defs>
    <path d="M20 25 Q20 15 30 15 L90 15 Q100 15 100 25 L100 45 Q100 55 90 55 L30 55 Q20 55 20 45 Z" fill="url(#mask2)" stroke="#b91c1c" stroke-width="1.5" filter="url(#glow)"/>
    <path d="M25 30 Q25 22 32 22 L88 22 Q95 22 95 30 L95 40 Q95 48 88 48 L32 48 Q25 48 25 40 Z" fill="#991b1b" opacity="0.3"/>
    <line x1="35" y1="30" x2="85" y2="30" stroke="#b91c1c" stroke-width="1" opacity="0.5"/>
    <line x1="35" y1="35" x2="85" y2="35" stroke="#b91c1c" stroke-width="1" opacity="0.5"/>
    <line x1="35" y1="40" x2="85" y2="40" stroke="#b91c1c" stroke-width="1" opacity="0.5"/>
    <path d="M15 25 Q10 20 10 25 L10 45 Q10 50 15 45" fill="none" stroke="#b91c1c" stroke-width="2"/>
    <path d="M105 25 Q110 20 110 25 L110 45 Q110 50 105 45" fill="none" stroke="#b91c1c" stroke-width="2"/>
    <circle cx="60" cy="35" r="8" fill="#fbbf24" opacity="0.8"/>
    <text x="60" y="39" text-anchor="middle" fill="#7c2d12" font-size="10" font-weight="bold">!</text>
</svg>
